<?xml version="1.0" encoding="UTF-8" standalone="no"?>
<!-- Created with Inkscape (http://www.inkscape.org/) -->

<svg
   width="512mm"
   height="512mm"
   viewBox="0 0 512 512"
   version="1.1"
   id="svg1"
   inkscape:version="1.4.3 (0d15f75, 2025-12-25)"
   sodipodi:docname="desktop.svg"
   xmlns:inkscape="http://www.inkscape.org/namespaces/inkscape"
   xmlns:sodipodi="http://sodipodi.sourceforge.net/DTD/sodipodi-0.dtd"
   xmlns="http://www.w3.org/2000/svg"
   xmlns:svg="http://www.w3.org/2000/svg">
  <sodipodi:namedview
     id="namedview1"
     pagecolor="#ffffff"
     bordercolor="#000000"
     borderopacity="0.25"
     inkscape:showpageshadow="2"
     inkscape:pageopacity="0.0"
     inkscape:pagecheckerboard="0"
     inkscape:deskcolor="#d1d1d1"
     inkscape:document-units="mm"
     inkscape:lockguides="false"
     showgrid="true"
     inkscape:zoom="0.35355339"
     inkscape:cx="469.5189"
     inkscape:cy="1155.4125"
     inkscape:window-width="3440"
     inkscape:window-height="1369"
     inkscape:window-x="-8"
     inkscape:window-y="-8"
     inkscape:window-maximized="1"
     inkscape:current-layer="layer1">
    <inkscape:grid
       id="grid1"
       units="mm"
       originx="0"
       originy="0"
       spacingx="0.99999998"
       spacingy="1"
       empcolor="#0099e5"
       empopacity="0.30196078"
       color="#0099e5"
       opacity="0.14901961"
       empspacing="5"
       enabled="true"
       visible="true" />
  </sodipodi:namedview>
  <defs
     id="defs1">
    <inkscape:perspective
       sodipodi:type="inkscape:persp3d"
       inkscape:vp_x="0 : 363.4999 : 1"
       inkscape:vp_y="0 : 999.9998 : 0"
       inkscape:vp_z="210.00014 : 363.4999 : 1"
       inkscape:persp3d-origin="105.00002 : 314.00004 : 1"
       id="perspective21" />
    <clipPath
       clipPathUnits="userSpaceOnUse"
       id="clipPath54">
      <path
         id="path55"
         style="fill:#000000;fill-opacity:0;stroke:#000000;stroke-width:1;stroke-dasharray:none;stroke-opacity:1"
         d="M 19.478398,9.4887902 V 90.489042 h 50.99995 V 9.4887902 Z M 66.531028,28.52941 h 10e-4 v 8.4e-5 c 0.158885,-0.0076 0.325898,0.142367 0.342103,0.456874 0.0098,0.191129 0.01823,0.382319 0.02575,0.573526 0.0091,-0.0029 0.01816,-0.0058 0.02722,-0.0087 v -0.294283 c 0.212567,-0.0051 0.425129,-0.01301 0.637778,-0.01349 0.04503,-4.1e-5 0.09009,8.28e-4 0.135125,0.0014 0.03683,-0.01303 0.07488,-0.0206 0.113381,-0.02771 0.0067,-0.0012 -0.01344,0.0022 -0.02011,0.0035 0.06243,-0.01872 0.127653,-0.01927 0.191857,-0.02632 0.08398,-0.0096 0.167791,-0.02101 0.252184,-0.02632 0.02984,-0.0018 0.05965,-0.0013 0.08951,-6.53e-4 0.07284,-0.05154 0.06698,-0.04005 0.198394,-0.06237 0.023,0.0049 0.04206,0.0087 0.05788,0.01177 0.0042,-4.22e-4 0.02846,-8.3e-5 0.02869,-8.3e-5 0.01702,-2.1e-4 0.03399,-2.1e-4 0.05101,-1.68e-4 -0.01581,-0.0087 -0.02247,-0.01383 -0.02272,-0.01627 0,-4.2e-5 4e-6,-1.67e-4 0,-2.51e-4 v -8.4e-5 -8.4e-5 -8.3e-5 -8.4e-5 -1.67e-4 c -4e-6,-3.6e-5 0,-1.26e-4 0,-1.68e-4 v -8.3e-5 -8.4e-5 -8.4e-5 c 6.7e-4,-4.18e-4 0.002,-7.24e-4 0.0036,-7.37e-4 0.0214,-1.25e-4 0.118781,0.03136 0.143546,0.0394 v -8.3e-5 c 0.0083,0.0028 0.0071,0.0024 0,8.3e-5 l -0.2154,0.701867 c 0.02568,-0.0027 0.05133,-0.0056 0.07463,-0.01594 0.04914,-0.02189 0.09142,-0.05682 0.135124,-0.08828 -0.01202,0.01341 -0.02405,0.02673 -0.03817,0.03801 -0.0171,0.01308 -0.03393,0.02647 -0.05125,0.03924 -0.02137,0.01573 -0.04469,0.02852 -0.06899,0.03948 0.01066,0.0012 0.0232,0.0025 0.03793,0.0042 -0.01282,-1.9e-5 -0.02567,-8.3e-5 -0.0385,8.4e-5 -0.0032,4.1e-5 -0.0064,1.26e-4 -0.0096,1.67e-4 -0.02773,0.01184 -0.05646,0.02154 -0.08469,0.03057 -0.03175,0.0083 -0.04598,0.01264 -0.08387,0.01749 -0.03247,0.0042 -0.06495,0.004 -0.09752,0.0034 -0.02235,-4.73e-4 -0.04468,-0.0015 -0.06703,-0.0016 -0.073,0.0035 -0.145199,0.01706 -0.217932,0.02354 -0.01528,0.0016 -0.06392,0.009 -0.0802,0.0069 -1.2e-5,0 0.0085,-0.002 0.0096,-0.0034 v -8.4e-5 -8.4e-5 c -0.0219,0.0057 -0.02817,0.0075 -0.0363,0.0093 l -0.008,0.06163 c -0.03209,-0.0043 -0.06426,-0.0082 -0.09646,-0.01136 -0.0031,0.0019 -0.0061,0.0039 -0.0092,0.0059 -0.06516,0.03622 -0.07417,0.04344 -0.145014,0.07316 -0.05895,0.02473 -0.133271,0.04952 -0.192837,0.06956 -0.05934,0.01995 -0.09993,0.03334 -0.140029,0.04635 0.117801,0.0591 0.210289,0.215673 0.198641,0.464641 -0.0036,0.07769 -0.0084,0.155064 -0.01447,0.232484 0.12372,0.107632 0.124113,0.296966 -0.04545,0.437256 -0.04913,0.38554 -0.119718,0.768422 -0.192756,1.150238 -0.05607,0.281739 -0.119246,0.562774 -0.193816,0.840261 -0.03823,0.142281 -0.07609,0.287251 -0.15033,0.416574 -0.03757,0.06545 -0.08876,0.121477 -0.133325,0.182374 -0.113373,0.04215 -0.227177,0.08447 -0.340554,0.126624 -0.482389,0.179372 0.0909,-0.655427 0.07333,-0.724019 v -4.89e-4 -8.4e-5 -8.4e-5 c -4.18e-4,-2.51e-4 -7.95e-4,-7.49e-4 -10e-4,-9.79e-4 v -4.9e-4 l -6.7e-4,-4.89e-4 v -8.4e-5 c -4.19e-4,-1.67e-4 -0.0011,-7.07e-4 -0.0015,-9.79e-4 h -7.53e-4 c -0.01217,-0.0013 -0.04766,0.02573 -0.115181,0.09303 -0.02992,0.02982 -0.06,0.05961 -0.08992,0.08943 0.08605,-0.0927 0.10941,-0.212374 0.142646,-0.335892 0.07148,-0.26564 0.13191,-0.534386 0.185562,-0.80413 0.04204,-0.219486 0.08307,-0.439659 0.119593,-0.660338 -0.114495,0.03609 -0.230438,0.06792 -0.349461,0.08551 -0.05796,0.0089 -0.115922,0.0172 -0.174036,0.02493 -0.244672,0.09624 -0.487888,0.196322 -0.730396,0.29829 -0.379826,0.177772 -0.774878,0.338261 -1.119338,0.581292 0.381211,0.327692 0.05838,0.771602 -0.438153,0.466112 -0.257676,-0.158533 -0.525485,-0.298384 -0.804623,-0.415431 -0.08447,0.02625 -0.169043,0.05252 -0.253244,0.07954 -1.317544,0.422828 -0.803782,0.247296 -2.100613,0.739549 -0.319341,0.132483 -0.638795,0.264884 -0.958137,0.397365 -0.581774,0.241353 -0.825689,-0.346397 -0.243846,-0.587586 0.325382,-0.134878 0.650739,-0.269757 0.976121,-0.40464 1.318924,-0.499646 0.809085,-0.326128 2.134781,-0.75132 0.02796,-0.009 0.08097,-0.02573 0.15131,-0.04766 0.0569,-0.05356 0.143097,-0.08684 0.252268,-0.08477 0.0057,1.25e-4 0.01174,2.92e-4 0.01757,6.52e-4 0.388695,-0.121974 0.920203,-0.291746 1.108464,-0.371533 0.223168,-0.09458 0.286752,-0.157995 0.451153,-0.289378 0.02598,-0.02074 0.05144,-0.03933 0.07692,-0.05583 -0.05633,-0.381731 -0.100796,-0.766195 -0.182373,-1.143618 -0.06515,-0.301407 0.04555,-0.497839 0.192347,-0.547776 l -0.09321,-0.653932 c 0.35275,-0.05567 0.708519,-0.08764 1.063098,-0.128668 0.170968,-0.01979 0.106484,-0.0076 0.195536,-0.02616 0.0047,-0.001 0.0087,-0.0019 0.01226,-0.0026 -0.02763,0.0061 -0.07715,0.01717 -0.09278,0.02158 l 0.288891,0.847944 c 0.0026,-4.19e-4 0.0052,-8.04e-4 0.0078,-0.0012 l 0.0685,-0.213111 c -0.0066,-0.164692 -0.01391,-0.329319 -0.0224,-0.493905 -0.01622,-0.314467 0.134112,-0.479198 0.292976,-0.486793 z m 2.056302,0.588076 c 0.0281,0.0053 0.0458,0.0082 0.05739,0.0099 -0.01294,-0.0033 -0.02636,-0.0061 -0.04112,-0.0085 -0.0054,-4.73e-4 -0.01082,-8.95e-4 -0.01627,-0.0014 z m 0.108723,0.02755 v 8.4e-5 c 4.19e-4,8.3e-5 5.02e-4,2.09e-4 7.53e-4,3.34e-4 -4.18e-4,-1.25e-4 -5.02e-4,-2.93e-4 -7.53e-4,-4.18e-4 z m 7.53e-4,4.18e-4 c 0.0065,0.0033 0.01471,0.0075 0.02526,0.01267 0.0058,0.0028 -0.01122,-0.0065 -0.01708,-0.0092 -0.0028,-0.0013 -0.0055,-0.0023 -0.0082,-0.0034 z m -0.394014,0.03916 c -0.0081,0.0042 -0.01504,0.0092 -0.02281,0.01496 v 8.4e-5 8.4e-5 8.4e-5 8.3e-5 8.4e-5 8.4e-5 8.3e-5 8.4e-5 8.4e-5 8.4e-5 8.3e-5 c -4.18e-4,3.77e-4 -7.53e-4,8.62e-4 -0.0011,0.0014 0.0088,-0.0063 0.01671,-0.01199 0.02403,-0.01725 z m 0.502164,0.526604 v 8.3e-5 8.4e-5 c -0.0011,0.0024 -0.01272,0.01682 -0.01847,0.02093 -0.0013,9.29e-4 -0.0026,0.0018 -0.0039,0.0028 0.0069,-0.0077 0.01379,-0.01548 0.02117,-0.02289 5.02e-4,-5.02e-4 10e-4,-8.08e-4 0.0012,-9.8e-4 z m -1.783111,0.584151 c -0.0031,8.75e-4 -0.0061,0.0018 -0.0092,0.0026 l -0.0034,0.01684 c 0.0041,-0.0067 0.0083,-0.0132 0.01259,-0.01946 z m -0.09491,0.04055 c 0.0023,0.07087 0.0045,0.141746 0.0068,0.212618 0.0097,-0.07902 0.0298,-0.145736 0.05706,-0.200356 -0.03646,-0.0076 -0.02633,-0.0055 -0.06384,-0.01226 z m -0.008,0.438482 c -0.01151,0.05116 -0.02898,0.09547 -0.05011,0.133327 0.01349,-0.0047 0.0273,-0.0093 0.04079,-0.01398 0.0035,-0.03987 0.0065,-0.07944 0.0093,-0.119348 z M 53.98385,45.127805 c 0.05855,0.199259 0.123167,0.396784 0.175671,0.597722 0.06624,0.253511 0.120697,0.51001 0.180412,0.765137 0.12191,0.520831 0.289675,1.274578 0.434313,1.791286 0.204731,0.731379 0.245331,0.794026 0.502979,1.465694 0.117486,0.215688 0.193441,0.515299 0.366138,0.716907 l 0.04823,-0.04226 c 0.05237,0.05633 0.102141,0.115171 0.157114,0.168968 0.02877,0.02815 0.05777,0.05602 0.08698,0.08371 0.187079,0.131988 0.38997,0.237655 0.587096,0.352976 0.122265,0.07136 0.230807,0.161184 0.339488,0.25104 l -0.08861,0.101692 c 0.132554,0.101445 0.266678,0.200713 0.40137,0.298697 l -0.872142,1.190786 c 0.504318,0.355948 1.011359,0.724285 1.599512,0.925601 0.03794,0.01299 0.07684,0.0232 0.11616,0.03155 l -0.605243,0.230685 1.805755,2.344787 c -0.255391,0.115972 -0.510806,0.23194 -0.766199,0.347908 -0.182305,0.01005 -0.364484,0.0384 -0.546876,0.03008 -0.378773,-0.01729 -0.864925,-0.149363 -1.206807,-0.281859 -0.903311,-0.350047 -1.695858,-0.912702 -2.475331,-1.475746 -0.361767,-0.281842 -0.734136,-0.550685 -1.085333,-0.845573 -0.593114,-0.49805 -1.346045,-1.211114 -1.86216,-1.800526 -0.422639,-0.482661 -1.019764,-1.162976 -1.153672,-1.841641 -0.06805,-0.344885 0.01127,-0.702942 0.01692,-1.054433 l 2.172874,0.800532 c -0.04077,-0.107705 -0.08044,-0.215839 -0.117305,-0.324937 -0.237178,-0.701836 -0.353461,-1.17398 -0.527339,-1.891098 -0.07254,-0.29916 -0.139358,-0.599721 -0.209187,-0.899526 -0.05184,-0.22256 -0.10515,-0.444784 -0.155806,-0.667614 -0.01684,-0.07406 -0.03113,-0.148661 -0.04668,-0.223001 z m 4.052036,8.693699 c 0.06687,0.0064 0.135258,0.0036 0.200603,0.01913 0.0026,6.27e-4 0.0042,0.0014 0.0048,0.0021 -0.0049,0.0052 -0.06061,0.01 -0.08174,0.0073 -0.04636,-0.0062 -0.09276,-0.01337 -0.13864,-0.02305 z" />
    </clipPath>
    <clipPath
       clipPathUnits="userSpaceOnUse"
       id="clipPath86">
      <path
         id="path87"
         style="fill:#000000;fill-opacity:0;stroke:#000000;stroke-width:1;stroke-dasharray:none;stroke-opacity:1"
         d="m 53.962069,29.051961 v 11.921253 c 0.06158,-0.290235 0.133211,-0.57837 0.225863,-0.860452 0.0275,-0.08373 0.06176,-0.165405 0.09245,-0.248016 0.445545,-1.199301 1.168104,-1.712752 1.805591,-1.698586 0.04686,0.0011 0.09326,0.0047 0.139049,0.01136 0.220083,-0.438502 0.445127,-0.875239 0.678487,-1.296072 0.181864,-0.327969 0.369383,-0.652817 0.572054,-0.968356 0.302932,-0.471638 0.63837,-0.932487 1.067103,-1.298689 0.339093,-0.289634 0.67058,-0.490831 0.983397,-0.617013 -0.300318,-0.06565 -0.33668,-0.451163 0.107005,-0.63508 0.325382,-0.13488 0.650739,-0.269758 0.976121,-0.40464 0.136861,-0.05185 0.254019,-0.0966 0.355593,-0.13537 0.236786,-0.205783 0.482191,-0.401886 0.73587,-0.588076 0.622284,-0.396629 0.828245,-0.546516 1.494961,-0.891924 0.55418,-0.287106 1.1258,-0.538276 1.71183,-0.748951 L 64.687222,29.05204 Z m 15.136135,0 -3.17499,8.4e-5 0.382893,1.123754 c 0.115474,-0.02755 0.231334,-0.05357 0.347666,-0.0779 0.447063,-0.103756 0.895387,-0.201821 1.341521,-0.309489 0.13872,-0.03347 0.277193,-0.06846 0.414452,-0.107494 0.09184,-0.02611 0.182042,-0.0584 0.272864,-0.08788 0.05029,-0.01633 0.09819,-0.04075 0.150414,-0.04905 0.01368,-0.0021 0.02451,0.01303 0.0367,0.01962 -0.01029,0.03573 -0.05955,0.106733 -0.05019,0.124989 v 8.4e-5 8.4e-5 c 4.18e-4,3.77e-4 0.0013,0.0012 0.0015,0.0015 0.0024,0.0013 0.0066,0.0024 0.01136,0.0016 0.05037,-0.008 0.05113,-0.08803 0.07341,-0.133899 0.07898,-0.162597 0.134049,-0.334985 0.192267,-0.505922 z m 5.318437,0 c -4e-6,0.0013 4e-6,0.0028 0,0.0041 v 0.05739 c 0.0088,0.04427 0.01968,0.0886 0.03049,0.132264 0.0053,0.02146 0.01054,0.04267 0.01602,0.06409 0.01521,0.05707 0.0154,0.05922 0.03155,0.112154 0.01842,0.06039 0.03802,0.121016 0.04856,0.183437 0.01132,0.06246 0.02016,0.124977 0.01807,0.188668 -5.44e-4,0.05147 -0.0034,0.102889 -0.01038,0.153927 -0.0059,0.0332 -7.12e-4,0.06785 -0.0026,0.101364 5.44e-4,0.04189 0.0036,0.08337 0.0083,0.124989 l -0.153435,0.01602 h -5.86e-4 c -0.01714,0.0146 -0.04018,0.01765 -0.06196,0.0067 h -9.63e-4 l -0.08518,0.0093 c -0.0057,0.04755 -0.01223,0.09719 -0.01921,0.13488 -0.0065,0.03538 -0.01592,0.07026 -0.02379,0.105369 -0.07493,0.09244 -0.106245,0.265875 -0.224716,0.277035 -0.101265,0.0095 -0.183708,0.01041 -0.251285,0.0032 v 0.398264 c -0.01481,0 -0.02966,10e-7 -0.04447,0 -0.01473,0 -0.02941,-3e-6 -0.04414,0 -0.01487,8e-6 -0.02976,10e-7 -0.04463,0 -0.01769,-1.67e-4 -0.03544,-1.67e-4 -0.05313,-4.9e-4 -0.0015,-1.8e-5 -0.0027,-2.8e-5 -0.0036,-8.3e-5 -4.19e-4,8.3e-5 -6.7e-4,1.67e-4 -9.63e-4,2.51e-4 -0.0343,0.0041 -0.06633,0.0086 -0.100139,0.0076 -0.0121,0 -0.0242,-2.9e-5 -0.0363,3.35e-4 -0.03756,8.87e-4 -0.07511,-1.68e-4 -0.112561,-0.0032 -0.04447,-0.0037 -0.08921,-0.0076 -0.133166,-0.01529 -0.03143,-0.0036 -0.03395,-0.0036 -0.06678,-0.0088 -0.0054,-8.62e-4 -0.01083,-0.0015 -0.01619,-0.0025 -0.03105,-4.2e-5 -0.06214,-4.2e-5 -0.09319,8.4e-5 -0.05775,2.09e-4 -0.11547,4.77e-4 -0.173219,7.36e-4 l -0.01104,0.04602 c -0.05027,-0.01285 -0.09973,-0.02846 -0.148693,-0.04553 -0.03082,4.1e-5 -0.06163,8.3e-5 -0.09246,0 -0.132961,-6.32e-4 -0.266126,-10e-4 -0.399079,-0.0053 l -0.0084,0.05281 c -0.148622,-0.02376 -0.296754,-0.05111 -0.443225,-0.08591 -0.01353,0.02435 -0.02798,0.04814 -0.04365,0.0712 -0.140599,0.206879 -0.309763,0.392651 -0.464563,0.589138 -0.184997,0.143482 -0.358012,0.30394 -0.55505,0.43039 -0.544424,0.349396 -1.199496,0.544356 -1.819976,0.702356 -0.02368,0.006 -1.454074,0.337914 -1.454171,0.337935 -0.08011,0.01619 -0.15988,0.03356 -0.239268,0.05166 -0.0056,0.02146 -0.01128,0.04267 -0.01709,0.06409 -0.03823,0.142279 -0.07609,0.287169 -0.15033,0.416493 -0.03757,0.06545 -0.08884,0.121556 -0.133408,0.182455 -0.113378,0.04215 -0.227094,0.08447 -0.340467,0.126623 -0.401179,0.149172 -0.07223,-0.402913 0.03981,-0.632545 -0.04197,0.01238 -0.08388,0.02474 -0.12564,0.03768 -0.01659,0.01648 -0.03307,0.03312 -0.04962,0.04962 0.01339,-0.01442 0.02501,-0.02981 0.03564,-0.04545 -0.624745,0.194308 -1.227216,0.449092 -1.811233,0.758106 -0.515729,0.272884 -0.679761,0.393386 -1.162744,0.705871 -0.477709,0.379537 -0.919294,0.80146 -1.308419,1.271794 -0.218953,0.264649 -0.521325,0.682323 -0.712655,0.966885 -0.106174,0.157914 -0.204978,0.32072 -0.307444,0.481071 -0.580867,0.938834 -0.988288,1.968535 -1.421143,2.980191 -0.577996,1.345953 -1.183705,2.679608 -1.796273,4.0101 -0.625556,1.354968 -1.225002,2.729737 -1.650031,4.163046 -0.09164,0.309062 -0.167624,0.622545 -0.251611,0.933777 -0.0667,0.274425 -0.130071,0.5496 -0.19014,0.825466 0.0094,0.0098 0.01892,0.01937 0.02861,0.02886 0.02889,0.02827 0.05797,0.05631 0.0873,0.08411 0.186931,0.131816 0.389664,0.237351 0.586605,0.352569 0.122267,0.07136 0.230806,0.161191 0.339488,0.251038 l -0.08853,0.101529 c 0.132591,0.101478 0.266719,0.200851 0.401452,0.29886 l -0.872142,1.190865 c 0.07319,0.05165 0.146449,0.103529 0.219976,0.155156 0.0036,-0.0054 0.0073,-0.01079 0.01104,-0.01611 0.0022,0.0096 0.0045,0.01913 0.0069,0.02869 0.427513,0.299643 0.865704,0.58806 1.361551,0.757781 0.03794,0.01299 0.07684,0.02318 0.11616,0.03155 l -0.605243,0.230685 1.805755,2.344787 c -0.255393,0.115968 -0.510808,0.231936 -0.766199,0.347908 -0.08307,0.0046 -0.166116,0.01298 -0.24916,0.01994 -0.03611,0.338588 -0.167189,0.621891 -0.363848,0.829388 0.02625,0.06928 0.05306,0.14106 0.08109,0.215484 0.354153,0.853717 0.322075,0.787517 0.465621,1.109527 0.620599,0.1233 1.507792,0.684357 2.493888,1.579731 0.0109,0.0099 0.02691,0.01608 0.03311,0.02943 0.0561,0.119806 0.09494,0.247195 0.152373,0.366382 0.08067,0.167385 0.172533,0.329384 0.261505,0.492517 0.198277,0.363561 0.334402,0.613206 0.526113,0.918247 0.09679,0.108313 0.191149,0.218786 0.278996,0.334335 0.122313,0.160861 0.468719,0.359368 0.331234,0.507476 -0.02304,0.02484 -0.04629,0.04993 -0.06973,0.07439 0.305783,0.258363 0.625612,0.499812 0.946206,0.73955 0.934931,0.69916 1.911828,1.340801 2.907354,1.949709 0.265733,0.162522 0.535375,0.318632 0.802987,0.478044 0.05561,0.03177 0.111305,0.06334 0.16692,0.09507 -0.01238,-0.211733 -0.02684,-0.423136 -0.0439,-0.634589 -0.03584,-0.443933 0.170792,-0.679975 0.39532,-0.694017 0.224532,-0.01402 0.46707,0.194252 0.502817,0.638185 0.03268,0.405662 0.05589,0.812085 0.0739,1.21858 0.115005,0.06516 0.229601,0.130324 0.344719,0.195289 -0.01799,-0.09292 -0.04203,-0.184649 -0.07602,-0.273358 -0.06828,-0.178029 0.0035,-0.30153 0.09826,-0.30695 h 0.0092 c 0.05958,0.0013 0.126633,0.04855 0.17314,0.157114 0.08437,0.196938 0.12179,0.407989 0.145178,0.62012 0.321846,0.180858 0.644374,0.360711 0.967375,0.539518 0.258371,0.13836 0.142395,0.08052 0.345782,0.177225 0.07694,0.03658 0.150925,0.07439 0.221695,0.113135 0.0021,-0.0016 0.0039,-0.0028 0.0061,-0.0047 0.02958,-0.01891 0.06079,-0.03415 0.09319,-0.04692 v -0.335972 h 0.01847 0.02224 0.02232 c 0.0071,4e-6 0.01417,1.3e-5 0.02125,0 h 0.02322 c 0.01616,0 0.03227,10e-4 0.04823,0.0033 0.02993,4.19e-4 0.05979,0.0039 0.08837,0.01316 0.02231,0.0024 0.04449,0.006 0.0667,0.0093 0.01615,0.0026 0.03204,0.0057 0.04798,0.0092 0.0029,6.28e-4 0.0058,0.0013 0.0087,0.0019 0.0215,0 0.04301,0.001 0.06433,0.0038 0.02752,0.0041 0.05515,0.0085 0.08125,0.01856 0.03556,0.01314 0.07237,0.02411 0.102918,0.04774 0.0091,0.0075 0.01865,0.01435 0.02714,0.02248 0.02037,0.0195 0.03723,0.04193 0.05084,0.06622 0.03108,-0.0097 0.06264,-0.0143 0.09352,-0.01406 0.0077,0 0.01514,-5.86e-4 0.02272,8.79e-4 0.0055,-0.09851 0.01088,-0.197039 0.01594,-0.295592 0.01614,-0.314513 0.182812,-0.471908 0.341613,-0.471916 0.04318,-4e-6 0.08575,0.01142 0.124582,0.03466 0.03898,-0.186734 0.160299,-0.283998 0.28627,-0.283165 0.149535,0.0011 0.305486,0.140603 0.337855,0.434068 0.02783,0.25239 0.05543,0.504759 0.08289,0.757124 0.08532,0.01544 0.188815,0.03455 0.239759,0.04586 0.0216,0.0048 0.04294,0.0098 0.06409,0.01496 0.01775,-0.02505 0.03732,-0.04588 0.05829,-0.06245 0.01296,-0.217271 0.13563,-0.334034 0.271801,-0.336466 0.148459,-0.0027 0.313208,0.130475 0.368592,0.417231 0.0046,4.18e-4 0.0092,5.02e-4 0.01373,9.2e-4 0.009,7.96e-4 0.01453,0.0016 0.02093,0.0027 0.0073,0 0.01454,0 0.02183,0 0.0075,0 0.01511,-4e-6 0.02264,0 0.0084,4e-6 0.01683,4e-6 0.02526,0 h 0.02354 0.02779 c 0.01502,-4.18e-4 0.02848,0.0014 0.04365,0.0039 0.0068,0 0.01351,0 0.02027,0 0.0074,8e-6 0.01482,0 0.02224,0 0.0086,4e-6 0.01716,0 0.02575,0 h 0.01872 v 0.317091 c 0.0078,0.0015 0.01582,0.0029 0.02403,0.0045 0.216827,-0.0961 0.278716,-0.108974 0.303276,-0.03205 l 0.446494,-0.08583 c 0.03113,0.178514 0.05173,0.359058 0.05943,0.540091 0.0029,0.08109 -2.5e-5,0.161811 -0.0021,0.242869 -5.44e-4,0.04253 0,0.08505 0,0.127603 -0.0016,0.0792 -0.01104,0.157914 -0.02273,0.236163 -0.0067,0.0946 -0.01716,0.189003 -0.02844,0.283165 -0.0051,0.04671 -0.01031,0.09346 -0.01553,0.140113 H 94.962464 V 29.051961 Z m -0.853504,2.069138 c -0.0059,7.03e-4 -0.0027,4.69e-4 -0.0112,0.0021 0.0046,-4.94e-4 0.0096,-0.0012 0.01095,-0.002 z M 57.996693,53.802821 c 0.06688,0.0064 0.135257,0.0036 0.200603,0.01913 0.0028,6.7e-4 0.0044,0.0015 0.0049,0.0022 h -8.4e-5 -8.4e-5 c -0.0056,0.0051 -0.0607,0.01 -0.08166,0.0072 -0.04631,-0.0062 -0.09264,-0.01346 -0.138478,-0.02313 z M 73.47575,68.275102 c 0.0013,4.18e-4 0.0028,4.18e-4 0.0042,6.69e-4 -7.95e-4,-4.18e-4 -0.0024,-4.6e-4 -0.0042,-6.69e-4 z" />
    </clipPath>
  </defs>
  <g
     inkscape:label="Слой 1"
     inkscape:groupmode="layer"
     id="layer1">
    <path
       style="fill:#000000;fill-opacity:0;stroke:#000000;stroke-width:23.7938;stroke-dasharray:none"
       id="path88"
       sodipodi:type="arc"
       sodipodi:cx="-251.98386"
       sodipodi:cy="349.53763"
       sodipodi:rx="119.56589"
       sodipodi:ry="119.66156"
       sodipodi:start="0"
       sodipodi:end="3.1415927"
       sodipodi:arc-type="slice"
       d="m -132.41797,349.53763 a 119.56589,119.66156 0 0 1 -59.78294,103.62995 119.56589,119.66156 0 0 1 -119.56589,0 119.56589,119.66156 0 0 1 -59.78294,-103.62995 h 119.56588 z"
       transform="rotate(-90)" />
    <rect
       style="fill:#000000;fill-opacity:0;stroke:#000000;stroke-width:23.7938;stroke-dasharray:none"
       id="rect88"
       width="305.64188"
       height="487.92575"
       x="12.194156"
       y="12.060721"
       rx="48.034836"
       ry="34.165836" />
  </g>
</svg>
