<?xml version="1.0" encoding="UTF-8" standalone="no"?>
<!-- Uploaded to: SVG Repo, www.svgrepo.com, Generator: SVG Repo Mixer Tools -->

<svg
   fill="#000000"
   height="512"
   width="512"
   version="1.1"
   id="Layer_1"
   viewBox="0 0 512 512"
   xml:space="preserve"
   sodipodi:docname="kitchen-pack-knife.svg"
   inkscape:version="1.4.3 (0d15f75, 2025-12-25)"
   xmlns:inkscape="http://www.inkscape.org/namespaces/inkscape"
   xmlns:sodipodi="http://sodipodi.sourceforge.net/DTD/sodipodi-0.dtd"
   xmlns="http://www.w3.org/2000/svg"
   xmlns:svg="http://www.w3.org/2000/svg"><defs
   id="defs8" /><sodipodi:namedview
   id="namedview8"
   pagecolor="#ffffff"
   bordercolor="#000000"
   borderopacity="0.25"
   inkscape:showpageshadow="2"
   inkscape:pageopacity="0.0"
   inkscape:pagecheckerboard="0"
   inkscape:deskcolor="#d1d1d1"
   showgrid="true"
   inkscape:zoom="1.031492"
   inkscape:cx="434.32231"
   inkscape:cy="335.92116"
   inkscape:window-width="3440"
   inkscape:window-height="1369"
   inkscape:window-x="-8"
   inkscape:window-y="-8"
   inkscape:window-maximized="1"
   inkscape:current-layer="Layer_1"><inkscape:grid
     id="grid8"
     units="px"
     originx="0"
     originy="0"
     spacingx="1"
     spacingy="1"
     empcolor="#0099e5"
     empopacity="0.30196078"
     color="#0099e5"
     opacity="0.14901961"
     empspacing="5"
     enabled="true"
     visible="true" /></sodipodi:namedview>
<g
   id="g2"
   transform="matrix(0.99496649,0,0,0.99496649,1.151245,-9.5940095)"
   style="stroke-width:14.07082564;stroke-dasharray:none">
	<g
   id="g1"
   style="stroke-width:14.07082564;stroke-dasharray:none">
		<path
   d="M 159.217,48.893 C 141.696,25.092 117.975,11.985 92.424,11.985 66.873,11.985 43.152,25.093 25.631,48.893 9.103,71.345 0,100.96 0,132.283 c 0,31.319 9.103,60.931 25.629,83.384 7.799,10.595 16.83,19.055 26.7,25.199 v 219.052 c 0,10.727 4.18,20.798 11.733,28.329 7.563,7.588 17.635,11.767 28.362,11.767 22.108,0 40.094,-17.986 40.094,-40.094 V 240.868 c 9.869,-6.144 18.901,-14.606 26.7,-25.2 16.525,-22.455 25.628,-52.067 25.628,-83.386 0.002,-31.322 -9.101,-60.937 -25.629,-83.389 z m -56.039,411.026 c 0,5.93 -4.824,10.753 -10.753,10.753 -2.871,0 -5.563,-1.115 -7.614,-3.173 -2.025,-2.017 -3.14,-4.709 -3.14,-7.58 V 251.765 c 3.541,0.521 7.125,0.816 10.753,0.816 3.628,0 7.212,-0.293 10.753,-0.816 v 208.154 z m 32.411,-261.645 c -11.851,16.099 -27.18,24.966 -43.165,24.966 -15.985,0 -31.314,-8.867 -43.165,-24.966 -12.844,-17.451 -19.918,-40.885 -19.918,-65.991 0,-25.11 7.074,-48.548 19.918,-65.995 11.849,-16.098 27.18,-24.962 43.165,-24.962 15.985,0 31.316,8.864 43.165,24.962 12.844,17.448 19.918,40.885 19.918,65.995 0,25.106 -7.074,48.54 -19.918,65.991 z"
   id="path1"
   style="stroke-width:14.07082564;stroke-dasharray:none" />
	</g>
</g>
<g
   id="g4"
   transform="matrix(0.99496649,0,0,0.99496649,1.151245,-9.5940095)"
   style="stroke-width:14.07082564;stroke-dasharray:none">
	<g
   id="g3"
   style="stroke-width:14.07082564;stroke-dasharray:none">
		<path
   d="m 288.891,11.985 c -40.787,0 -73.969,33.176 -73.969,73.954 v 177.029 c 0,18.514 10.921,34.521 26.656,41.933 V 459.92 c 0,22.108 17.986,40.094 40.094,40.094 22.108,0 40.094,-17.986 40.094,-40.094 V 294.627 44.862 C 321.768,26.733 307.02,11.985 288.891,11.985 Z m 3.536,447.934 c 0,5.93 -4.824,10.753 -10.753,10.753 -5.93,0 -10.753,-4.824 -10.753,-10.753 V 309.297 h 21.507 v 150.622 z m 0,-179.963 h -31.175 c -9.367,0 -16.988,-7.621 -16.988,-16.988 V 85.939 c 0,-24.599 20.019,-44.613 44.628,-44.613 1.95,0 3.536,1.586 3.536,3.536 v 235.094 z"
   id="path2"
   style="stroke-width:14.07082564;stroke-dasharray:none" />
	</g>
</g>
<g
   id="g6"
   transform="matrix(0.99496649,0,0,0.99496649,1.151245,-9.5940095)"
   style="stroke-width:14.07082564;stroke-dasharray:none">
	<g
   id="g5"
   style="stroke-width:14.07082564;stroke-dasharray:none">
		<path
   d="m 497.33,67.484 c -8.103,0 -14.67,6.568 -14.67,14.67 V 156.24 H 456.253 V 26.656 c 0,-8.102 -6.568,-14.67 -14.67,-14.67 -8.102,0 -14.67,6.568 -14.67,14.67 V 156.24 H 400.506 V 26.656 c 0,-8.102 -6.568,-14.67 -14.671,-14.67 -8.102,0 -14.67,6.568 -14.67,14.67 v 144.254 30.324 c 0,20.823 12.467,38.779 30.324,46.827 v 211.858 c 0,22.108 17.986,40.094 40.094,40.094 22.108,0 40.094,-17.986 40.094,-40.094 V 248.061 C 499.532,240.013 512,222.058 512,201.234 V 170.91 82.154 c 0,-8.102 -6.568,-14.67 -14.67,-14.67 z m -44.995,392.435 c 0,5.93 -4.824,10.753 -10.753,10.753 -5.929,0 -10.753,-4.824 -10.753,-10.753 V 252.581 h 21.507 v 207.338 z m 30.324,-258.685 c 0,12.134 -9.872,22.006 -22.006,22.006 H 422.51 c -12.134,0 -22.006,-9.872 -22.006,-22.006 v -15.653 h 82.155 z"
   id="path4"
   style="stroke-width:14.07082564;stroke-dasharray:none" />
	</g>
</g>
<g
   id="g8"
   transform="matrix(0.99496649,0,0,0.99496649,1.151245,-9.5940095)"
   style="stroke-width:14.07082564;stroke-dasharray:none">
	<g
   id="g7"
   style="stroke-width:14.07082564;stroke-dasharray:none">
		<path
   d="m 497.33,11.985 c -8.103,0 -14.67,6.568 -14.67,14.67 v 11.487 c 0,8.103 6.568,14.671 14.67,14.671 8.102,0 14.67,-6.568 14.67,-14.67 V 26.656 c 0,-8.103 -6.568,-14.671 -14.67,-14.671 z"
   id="path6"
   style="stroke-width:14.07082564;stroke-dasharray:none" />
	</g>
</g>
</svg>
