<?xml version="1.0" encoding="UTF-8" standalone="no"?>
<!-- Uploaded to: SVG Repo, www.svgrepo.com, Generator: SVG Repo Mixer Tools -->

<svg
   width="512"
   height="512"
   viewBox="0 0 512 512"
   version="1.1"
   id="svg2"
   sodipodi:docname="conference-room.svg"
   inkscape:version="1.4.3 (0d15f75, 2025-12-25)"
   xmlns:inkscape="http://www.inkscape.org/namespaces/inkscape"
   xmlns:sodipodi="http://sodipodi.sourceforge.net/DTD/sodipodi-0.dtd"
   xmlns="http://www.w3.org/2000/svg"
   xmlns:svg="http://www.w3.org/2000/svg">
  <defs
     id="defs2" />
  <sodipodi:namedview
     id="namedview2"
     pagecolor="#ffffff"
     bordercolor="#000000"
     borderopacity="0.25"
     inkscape:showpageshadow="2"
     inkscape:pageopacity="0.0"
     inkscape:pagecheckerboard="false"
     inkscape:deskcolor="#d1d1d1"
     inkscape:zoom="1.031492"
     inkscape:cx="715.46847"
     inkscape:cy="307.80656"
     inkscape:window-width="3440"
     inkscape:window-height="1369"
     inkscape:window-x="-8"
     inkscape:window-y="-8"
     inkscape:window-maximized="1"
     inkscape:current-layer="svg2" />
  <path
     d="M 45.735068,288.95899 A 57.089509,57.089509 0 0 1 93.706917,276.509 55.07622,55.07622 0 0 1 126.56752,296.66503 l 9.69618,-23.67351 a 78.4489,78.4489 0 0 0 -16.36087,-11.31607 57.853171,57.853171 0 1 0 -74.399174,-0.13881 79.929942,79.929942 0 0 0 -14.602142,9.67304 80.786168,80.786168 0 0 0 -29.0885744,62.15744 v 34.71192 H 24.954209 v -34.71192 a 57.668041,57.668041 0 0 1 20.780859,-44.40809 z m 2.360409,-71.29824 a 34.711902,34.711902 0 1 1 34.7119,34.7119 34.758186,34.758186 0 0 1 -34.7119,-34.7119 z m 418.926383,44.0147 a 57.853171,57.853171 0 1 0 -74.39919,-0.16199 79.791093,79.791093 0 0 0 -14.60214,9.69619 c -0.60168,0.48604 -1.01821,1.15706 -1.61987,1.66618 l 9.5342,23.28011 a 55.701033,55.701033 0 0 1 54.89109,-19.64693 60.352427,60.352427 0 0 1 46.95363,60.23672 v 31.33328 h 23.14126 v -31.33328 a 84.396206,84.396206 0 0 0 -43.89898,-75.07028 z m -71.80736,-44.0147 a 34.711902,34.711902 0 1 1 34.71191,34.7119 34.758186,34.758186 0 0 1 -34.71191,-34.7119 z M 210.08436,206.09011 v -23.14127 a 46.051124,46.051124 0 0 1 17.67991,-36.37808 46.745362,46.745362 0 0 1 40.24268,-8.49284 48.133838,48.133838 0 0 1 34.64247,47.62473 v 20.38746 h 23.14127 V 185.7258 a 73.427244,73.427244 0 0 0 -33.43912,-61.97232 57.853171,57.853171 0 1 0 -71.73795,0.20821 68.40559,68.40559 0 0 0 -7.17378,4.44313 69.053545,69.053545 0 0 0 -26.49676,54.54396 v 23.14127 z M 221.65498,78.813129 A 34.711902,34.711902 0 1 1 256.36689,113.52504 34.758186,34.758186 0 0 1 221.65498,78.813129 Z M 440.64081,490.95913 419.212,499.75282 318.01523,252.37265 H 194.71855 L 93.521789,499.75282 72.092973,490.95913 173.28973,243.62524 a 23.071845,23.071845 0 0 1 21.42882,-14.39386 h 123.29668 a 23.048704,23.048704 0 0 1 21.40568,14.34758 z"
     id="path1"
     style="stroke-width:14;stroke-dasharray:none;fill:#b7c4c8" />
  <path
     fill="none"
     d="M -21.328328,-2.1813064 H 534.06211 V 553.20914 H -21.328328 Z"
     id="path2"
     style="stroke-width:23.1412" />
</svg>
