<?xml version="1.0" encoding="UTF-8" standalone="no"?>
<!-- Uploaded to: SVG Repo, www.svgrepo.com, Generator: SVG Repo Mixer Tools -->

<svg
   width="721"
   height="525"
   viewBox="0 0 21.63 15.75"
   fill="none"
   version="1.1"
   id="svg1"
   sodipodi:docname="hanger.svg"
   inkscape:version="1.4.3 (0d15f75, 2025-12-25)"
   xmlns:inkscape="http://www.inkscape.org/namespaces/inkscape"
   xmlns:sodipodi="http://sodipodi.sourceforge.net/DTD/sodipodi-0.dtd"
   xmlns="http://www.w3.org/2000/svg"
   xmlns:svg="http://www.w3.org/2000/svg">
  <defs
     id="defs1" />
  <sodipodi:namedview
     id="namedview1"
     pagecolor="#ffffff"
     bordercolor="#000000"
     borderopacity="0.25"
     inkscape:showpageshadow="2"
     inkscape:pageopacity="0.0"
     inkscape:pagecheckerboard="0"
     inkscape:deskcolor="#d1d1d1"
     inkscape:zoom="0.729375"
     inkscape:cx="272.83633"
     inkscape:cy="499.74293"
     inkscape:window-width="1867"
     inkscape:window-height="1211"
     inkscape:window-x="1478"
     inkscape:window-y="66"
     inkscape:window-maximized="0"
     inkscape:current-layer="svg1" />
  <path
     fill-rule="evenodd"
     clip-rule="evenodd"
     d="m 10.466898,1.5546273 c -0.8361001,0 -1.3740001,0.59219 -1.3740001,1.15909 0,0.41421 -0.33583,0.75 -0.75004,0.75 -0.41421,0 -0.75,-0.33579 -0.75,-0.75 0,-1.54182 1.36404,-2.65909005 2.8740401,-2.65909005 1.51,0 2.874,1.11727005 2.874,2.65909005 0,0.68019 -0.2472,1.31445 -0.6893,1.79531 -0.1399,0.15229 -0.2948,0.30502 -0.4359,0.44411 -0.0251,0.02476 -0.0498,0.04909 -0.0739,0.0729 -0.1671,0.16531 -0.3144,0.31475 -0.4407,0.46315 -0.0873,0.10265 -0.1543,0.1934 -0.205,0.27432 0.5685,0.10792 1.1205,0.32672 1.6146,0.65982 l 7.4325,5.0102997 c 0.9496,0.6402 1.2069,1.6966 0.8765,2.5875 -0.325,0.8763 -1.1906,1.5335 -2.3152,1.5335 H 2.5095079 c -1.11267,0 -1.97452996,-0.6451 -2.30663996,-1.5108 -0.33761,-0.8801 -0.09909,-1.9306 0.82790996,-2.5826 l 7.09569,-4.9912997 c 0.53647,-0.3774 1.14633,-0.617 1.77373,-0.72279 0.1054001,-0.50602 0.3929001,-0.91772 0.6583001,-1.22973 0.1718,-0.20204 0.3598,-0.39097 0.5284,-0.55769 0.0277,-0.02742 0.0548,-0.05413 0.0812,-0.08024 0.1419,-0.13999 0.2663,-0.26278 0.3793,-0.3856 0.1821,-0.19813 0.2935,-0.46789 0.2935,-0.78016 0,-0.5669 -0.5379,-1.15909 -1.374,-1.15909 z m 1.8054,6.1124 c -0.4826,-0.3253 -1.0658,-0.4894 -1.6551,-0.4825 -0.5844,0.0067 -1.1575001,0.1815 -1.6277001,0.5123 l -7.09571,4.9911997 c -0.34509,0.2428 -0.39062,0.5573 -0.29043,0.8185 0.10569,0.2756 0.40349,0.5481 0.90615,0.5481 H 19.104498 c 0.5083,0 0.8057,-0.2771 0.9088,-0.5551 0.0977,-0.2635 0.0482,-0.5816 -0.3085,-0.8221 z"
     fill="#1C274C"
     id="path1"
     style="fill:#000000;fill-opacity:1" />
</svg>
