<?xml version="1.0" encoding="UTF-8" standalone="no"?>
<!-- Uploaded to: SVG Repo, www.svgrepo.com, Generator: SVG Repo Mixer Tools -->

<svg
   width="512"
   height="512"
   viewBox="0 0 512 512"
   fill="none"
   version="1.1"
   id="svg1"
   sodipodi:docname="hanger.svg"
   inkscape:version="1.4.3 (0d15f75, 2025-12-25)"
   xmlns:inkscape="http://www.inkscape.org/namespaces/inkscape"
   xmlns:sodipodi="http://sodipodi.sourceforge.net/DTD/sodipodi-0.dtd"
   xmlns="http://www.w3.org/2000/svg"
   xmlns:svg="http://www.w3.org/2000/svg">
  <defs
     id="defs1" />
  <sodipodi:namedview
     id="namedview1"
     pagecolor="#ffffff"
     bordercolor="#000000"
     borderopacity="0.25"
     inkscape:showpageshadow="2"
     inkscape:pageopacity="0.0"
     inkscape:pagecheckerboard="0"
     inkscape:deskcolor="#d1d1d1"
     inkscape:zoom="0.729375"
     inkscape:cx="714.99572"
     inkscape:cy="331.1054"
     inkscape:window-width="1867"
     inkscape:window-height="1211"
     inkscape:window-x="1478"
     inkscape:window-y="66"
     inkscape:window-maximized="0"
     inkscape:current-layer="svg1" />
  <path
     fill-rule="evenodd"
     clip-rule="evenodd"
     d="m 248.64519,78.176761 c -19.85458,0 -32.62791,14.062534 -32.62791,27.524519 0,9.8361 -7.97484,17.80999 -17.81095,17.80999 -9.8361,0 -17.80999,-7.97389 -17.80999,-17.80999 0,-36.613079 32.3914,-63.14451 68.24885,-63.14451 35.85746,0 68.2479,26.531431 68.2479,63.14451 0,16.15224 -5.87017,31.2138 -16.36857,42.63261 -3.32215,3.61638 -7.00051,7.24321 -10.35117,10.54613 -0.59607,0.58794 -1.18258,1.16573 -1.75487,1.73113 -3.96807,3.92556 -7.46595,7.47427 -10.46516,10.99827 -2.07308,2.43759 -3.66411,4.5926 -4.86807,6.51418 13.49998,2.56274 26.60813,7.75851 38.34137,15.66852 L 487.92366,312.77 c 22.54984,15.20262 28.65984,40.28859 20.81395,61.44449 -7.71767,20.8092 -28.27277,36.41551 -54.97827,36.41551 H 59.683746 C 33.261548,410.63 12.795258,395.31102 4.9087536,374.75354 -3.1083567,353.85411 2.5556934,328.90824 24.568853,313.42541 L 193.0678,194.89872 c 12.73936,-8.96199 27.2215,-14.6517 42.12016,-17.16386 2.50289,-12.01628 9.33007,-21.79278 15.63242,-29.20197 4.07968,-4.79778 8.54405,-9.28423 12.54774,-13.24328 0.6578,-0.65113 1.30132,-1.2854 1.92823,-1.90543 3.36965,-3.32429 6.32374,-6.24014 9.0071,-9.15671 4.32428,-4.70492 6.96965,-11.11083 6.96965,-18.52619 0,-13.461985 -12.77333,-27.524519 -32.62791,-27.524519 z m 42.87222,145.149079 c -11.46014,-7.72479 -25.30919,-11.62162 -39.30309,-11.45776 -13.87756,0.15907 -27.48677,4.31002 -38.65244,12.16542 L 45.062456,342.55781 c -8.194735,5.7657 -9.275922,13.23402 -6.896747,19.43665 2.509788,6.54458 9.581543,13.01554 21.518037,13.01554 H 453.75934 c 12.07043,0 19.13269,-6.5802 21.58096,-13.18177 2.32005,-6.25725 1.14459,-13.81106 -7.32584,-19.52213 z"
     fill="#1C274C"
     id="path1"
     style="fill:#000000;fill-opacity:1;stroke-width:14;stroke-dasharray:none" />
</svg>
