<?xml version="1.0" encoding="UTF-8" standalone="no"?>
<!-- Uploaded to: SVG Repo, www.svgrepo.com, Generator: SVG Repo Mixer Tools -->

<svg
   fill="#000000"
   version="1.1"
   id="Layer_1"
   viewBox="0 0 512 387"
   xml:space="preserve"
   sodipodi:docname="ladder.svg"
   width="512"
   height="387"
   inkscape:version="1.4.3 (0d15f75, 2025-12-25)"
   xmlns:inkscape="http://www.inkscape.org/namespaces/inkscape"
   xmlns:sodipodi="http://sodipodi.sourceforge.net/DTD/sodipodi-0.dtd"
   xmlns="http://www.w3.org/2000/svg"
   xmlns:svg="http://www.w3.org/2000/svg"><defs
   id="defs10" /><sodipodi:namedview
   id="namedview10"
   pagecolor="#ffffff"
   bordercolor="#000000"
   borderopacity="0.25"
   inkscape:showpageshadow="2"
   inkscape:pageopacity="0.0"
   inkscape:pagecheckerboard="0"
   inkscape:deskcolor="#d1d1d1"
   inkscape:zoom="1.1396484"
   inkscape:cx="123.72236"
   inkscape:cy="234.72151"
   inkscape:window-width="2121"
   inkscape:window-height="1239"
   inkscape:window-x="1004"
   inkscape:window-y="27"
   inkscape:window-maximized="0"
   inkscape:current-layer="Layer_1" />
<g
   id="g2"
   transform="translate(0.07755756,-63.286966)">
	<g
   id="g1">
		<polygon
   points="125.754,444.632 512,444.632 512,426.667 125.754,426.667 125.754,363.789 107.789,363.789 107.789,426.667 0,426.667 0,444.632 107.789,444.632 "
   id="polygon1" />
	</g>
</g>
<g
   id="g4"
   transform="translate(0.07755756,-63.286966)">
	<g
   id="g3">
		<polygon
   points="197.614,354.807 215.579,354.807 215.579,336.842 197.614,336.842 197.614,273.965 179.649,273.965 179.649,336.842 80.842,336.842 80.842,354.807 179.649,354.807 "
   id="polygon2" />
	</g>
</g>
<g
   id="g6"
   transform="translate(0.07755756,-63.286966)">
	<g
   id="g5">
		<polygon
   points="269.474,264.982 287.439,264.982 287.439,247.018 269.474,247.018 269.474,184.14 251.509,184.14 251.509,247.018 152.702,247.018 152.702,264.982 251.509,264.982 "
   id="polygon4" />
	</g>
</g>
<g
   id="g8">
	<g
   id="g7">
		<polygon
   points="341.333,175.158 359.298,175.158 359.298,157.193 341.333,157.193 341.333,94.316 323.368,94.316 323.368,157.193 224.561,157.193 224.561,175.158 323.368,175.158 "
   id="polygon6"
   transform="translate(0.07755756,-63.286966)" />
	</g>
</g>
<g
   id="g10"
   transform="translate(0.07755756,-63.286966)">
	<g
   id="g9">
		<rect
   x="296.42099"
   y="67.367996"
   width="134.737"
   height="17.965"
   id="rect8" />
	</g>
</g>
</svg>
