<?xml version="1.0" encoding="UTF-8" standalone="no"?>
<!-- Uploaded to: SVG Repo, www.svgrepo.com, Generator: SVG Repo Mixer Tools -->

<svg
   version="1.1"
   id="_x32_"
   viewBox="0 0 512 512"
   xml:space="preserve"
   sodipodi:docname="printer.svg"
   width="512"
   height="512"
   inkscape:version="1.4.3 (0d15f75, 2025-12-25)"
   xmlns:inkscape="http://www.inkscape.org/namespaces/inkscape"
   xmlns:sodipodi="http://sodipodi.sourceforge.net/DTD/sodipodi-0.dtd"
   xmlns="http://www.w3.org/2000/svg"
   xmlns:svg="http://www.w3.org/2000/svg"><defs
   id="defs4" /><sodipodi:namedview
   id="namedview4"
   pagecolor="#ffffff"
   bordercolor="#000000"
   borderopacity="0.25"
   inkscape:showpageshadow="2"
   inkscape:pageopacity="0.0"
   inkscape:pagecheckerboard="0"
   inkscape:deskcolor="#d1d1d1"
   inkscape:zoom="0.80585314"
   inkscape:cx="596.88295"
   inkscape:cy="248.80464"
   inkscape:window-width="3440"
   inkscape:window-height="1369"
   inkscape:window-x="-8"
   inkscape:window-y="-8"
   inkscape:window-maximized="1"
   inkscape:current-layer="_x32_" />
<style
   type="text/css"
   id="style1">
	.st0{fill:#000000;}
</style>
<g
   id="g4"
   transform="matrix(0.99090108,0,0,0.99090108,2.086697,1.8151661)"
   style="stroke-width:14.12855459;stroke-dasharray:none;fill:#b7c4c8">
	<path
   class="st0"
   d="m 488.626,164.239 c -7.794,-7.813 -18.666,-12.684 -30.578,-12.676 H 409.01 V 77.861 L 331.145,0 H 326.92 102.99 V 151.564 H 53.955 c -11.923,-0.008 -22.802,4.862 -30.597,12.676 -7.806,7.798 -12.665,18.671 -12.657,30.574 v 170.937 c -0.008,11.919 4.847,22.806 12.661,30.589 7.794,7.813 18.678,12.669 30.593,12.661 h 49.034 V 512 h 306.02 V 409.001 h 49.037 c 11.901,0.008 22.78,-4.848 30.574,-12.661 7.818,-7.784 12.684,-18.67 12.677,-30.589 V 194.814 c 0.009,-11.904 -4.861,-22.776 -12.671,-30.575 z M 323.519,21.224 385.845,83.55 h -62.326 z m -200.127,-0.826 179.725,0.015 v 83.542 h 85.491 v 47.609 H 123.392 Z M 388.608,491.602 H 123.392 v -92.801 h -0.016 v -96.638 h 265.217 v 106.838 h 0.015 z m 92.288,-125.851 c -0.004,6.353 -2.546,11.996 -6.694,16.17 -4.166,4.136 -9.813,6.667 -16.155,6.682 H 408.998 V 281.75 H 102.974 V 388.603 H 53.955 c -6.365,-0.015 -12.007,-2.546 -16.166,-6.682 -4.144,-4.174 -6.682,-9.817 -6.686,-16.17 V 194.814 c 0.004,-6.338 2.538,-11.988 6.686,-16.155 4.167,-4.144 9.809,-6.682 16.166,-6.698 h 49.034 306.02 49.037 c 6.331,0.016 11.985,2.546 16.151,6.698 4.156,4.174 6.694,9.817 6.698,16.155 v 170.937 z"
   id="path1"
   style="stroke-width:14.12855459;stroke-dasharray:none;fill:#b7c4c8" />
	<rect
   x="167.59"
   y="336.155"
   class="st0"
   width="176.82001"
   height="20.405001"
   id="rect1"
   style="stroke-width:14.12855459;stroke-dasharray:none;fill:#b7c4c8" />
	<rect
   x="167.59"
   y="388.61801"
   class="st0"
   width="176.82001"
   height="20.398001"
   id="rect2"
   style="stroke-width:14.12855459;stroke-dasharray:none;fill:#b7c4c8" />
	<rect
   x="167.59"
   y="435.255"
   class="st0"
   width="83.556"
   height="20.398001"
   id="rect3"
   style="stroke-width:14.12855459;stroke-dasharray:none;fill:#b7c4c8" />
	<path
   class="st0"
   d="m 353.041,213.369 c -9.263,0 -16.767,7.508 -16.767,16.774 0,9.251 7.504,16.759 16.767,16.759 9.263,0 16.77,-7.508 16.77,-16.759 0,-9.266 -7.506,-16.774 -16.77,-16.774 z"
   id="path3"
   style="stroke-width:14.12855459;stroke-dasharray:none;fill:#b7c4c8" />
	<path
   class="st0"
   d="m 424.427,213.369 c -9.262,0 -16.77,7.508 -16.77,16.774 0,9.251 7.508,16.759 16.77,16.759 9.258,0 16.766,-7.508 16.766,-16.759 0,-9.266 -7.508,-16.774 -16.766,-16.774 z"
   id="path4"
   style="stroke-width:14.12855459;stroke-dasharray:none;fill:#b7c4c8" />
</g>
</svg>
