<?xml version="1.0" encoding="UTF-8" standalone="no"?>
<!-- Created with Inkscape (http://www.inkscape.org/) -->

<svg
   width="49mm"
   height="126mm"
   viewBox="0 0 49 126"
   version="1.1"
   id="svg1"
   inkscape:version="1.4.3 (0d15f75, 2025-12-25)"
   sodipodi:docname="toilet_man.svg"
   xmlns:inkscape="http://www.inkscape.org/namespaces/inkscape"
   xmlns:sodipodi="http://sodipodi.sourceforge.net/DTD/sodipodi-0.dtd"
   xmlns="http://www.w3.org/2000/svg"
   xmlns:svg="http://www.w3.org/2000/svg">
  <sodipodi:namedview
     id="namedview1"
     pagecolor="#ffffff"
     bordercolor="#000000"
     borderopacity="0.25"
     inkscape:showpageshadow="2"
     inkscape:pageopacity="0.0"
     inkscape:pagecheckerboard="0"
     inkscape:deskcolor="#d1d1d1"
     inkscape:document-units="mm"
     inkscape:lockguides="true"
     inkscape:zoom="1.4702523"
     inkscape:cx="330.89558"
     inkscape:cy="274.44269"
     inkscape:window-width="2112"
     inkscape:window-height="1211"
     inkscape:window-x="916"
     inkscape:window-y="132"
     inkscape:window-maximized="0"
     inkscape:current-layer="layer1"
     showguides="true" />
  <defs
     id="defs1" />
  <g
     inkscape:label="Слой 1"
     inkscape:groupmode="layer"
     id="layer1">
    <path
       class="st0"
       d="m 25.243573,20.970203 c 5.790671,0 10.476971,-4.691062 10.476971,-10.479087 0,-5.7856434 -4.6863,-10.47458937 -10.476971,-10.47458937 -5.785379,0 -10.476971,4.68894597 -10.476971,10.47458937 2.65e-4,5.788025 4.691592,10.479087 10.476971,10.479087 z"
       id="path3"
       style="fill:#000000;stroke-width:0.264583" />
    <path
       class="st0"
       d="M 38.143598,23.928245 H 10.614761 c -5.0757676,0 -10.60185466,5.525558 -10.60185466,10.601854 v 35.215244 c 0,2.53815 2.05845806,4.59661 4.59660606,4.59661 2.537883,0 4.5963422,-2.05846 4.5963422,-4.59661 V 40.792786 h 2.1182544 v 78.598974 c 0,3.33481 2.702718,6.03779 6.040173,6.03779 3.337454,0 6.040172,-2.70298 6.040172,-6.03779 V 73.777063 h 1.948657 v 45.614697 c 0,3.33481 2.702718,6.03779 6.040172,6.03779 3.332427,0 6.040438,-2.70298 6.040438,-6.03779 V 40.792786 h 2.118254 v 28.952297 c 0,2.53815 2.058458,4.5966 4.596346,4.5966 2.53814,0 4.5966,-2.05845 4.5966,-4.5966 V 34.529834 c 5.3e-4,-5.076031 -5.52529,-10.601589 -10.601323,-10.601589 z"
       id="path4"
       style="fill:#000000;stroke-width:0.264583" />
  </g>
</svg>
