<?xml version="1.0" encoding="UTF-8" standalone="no"?>
<!-- Created with Inkscape (http://www.inkscape.org/) -->

<svg
   width="512mm"
   height="512mm"
   viewBox="0 0 512 512"
   version="1.1"
   id="svg1"
   inkscape:version="1.4.3 (0d15f75, 2025-12-25)"
   sodipodi:docname="toilet_woman.svg"
   xmlns:inkscape="http://www.inkscape.org/namespaces/inkscape"
   xmlns:sodipodi="http://sodipodi.sourceforge.net/DTD/sodipodi-0.dtd"
   xmlns="http://www.w3.org/2000/svg"
   xmlns:svg="http://www.w3.org/2000/svg">
  <sodipodi:namedview
     id="namedview1"
     pagecolor="#ffffff"
     bordercolor="#000000"
     borderopacity="0.25"
     inkscape:showpageshadow="2"
     inkscape:pageopacity="0.0"
     inkscape:pagecheckerboard="0"
     inkscape:deskcolor="#d1d1d1"
     inkscape:document-units="mm"
     inkscape:lockguides="true"
     inkscape:zoom="0.1767767"
     inkscape:cx="1510.3801"
     inkscape:cy="1015.4053"
     inkscape:window-width="2112"
     inkscape:window-height="1211"
     inkscape:window-x="916"
     inkscape:window-y="132"
     inkscape:window-maximized="0"
     inkscape:current-layer="layer1"
     showguides="true"
     showgrid="true">
    <inkscape:grid
       id="grid1"
       units="mm"
       originx="0"
       originy="0"
       spacingx="0.99999999"
       spacingy="1"
       empcolor="#0099e5"
       empopacity="0.30196078"
       color="#0099e5"
       opacity="0.14901961"
       empspacing="5"
       enabled="true"
       visible="true" />
  </sodipodi:namedview>
  <defs
     id="defs1" />
  <g
     inkscape:label="Слой 1"
     inkscape:groupmode="layer"
     id="layer1">
    <path
       class="st0"
       d="m 247.15153,85.363124 c 23.28411,0 42.16418,-19.110274 42.16418,-42.689317 0,-23.569338 -18.87901,-42.67099698 -42.16418,-42.67099698 -23.30328,0 -42.16419,19.10165898 -42.16419,42.67099698 0,23.579043 18.86091,42.689317 42.16419,42.689317 z"
       id="path1"
       style="fill:#000000;stroke-width:14;stroke-dasharray:none" />
    <path
       class="st0"
       d="m 329.34815,146.19703 c -8.54613,-29.20649 -27.68708,-48.561444 -49.24088,-48.561444 -15.96569,0 -32.95574,0 -32.95574,0 0,0 -16.99005,0 -32.95468,0 -21.55486,0 -40.71604,19.356014 -49.26218,48.561444 l -31.04441,111.50356 c -2.29253,9.39345 3.37756,18.97878 12.6467,21.27891 9.28937,2.32062 18.57873,-3.17534 20.8702,-12.56773 l 30.94538,-111.15865 h 9.12859 L 153.63389,348.6086 h 50.76994 v 143.42733 c 0,10.96062 8.78678,19.84426 19.60414,19.84426 10.83759,0 19.6233,-8.88364 19.6233,-19.84426 V 348.6086 h 10.79821 v 143.42733 c 0,10.96062 8.78678,19.84426 19.62438,19.84426 10.81735,0 19.60413,-8.88364 19.60413,-19.84426 V 348.6086 h 46.98988 L 286.8017,155.25421 h 9.12859 l 30.94432,111.15864 c 2.29146,9.39238 11.60106,14.88834 20.8702,12.56773 9.28937,-2.30013 14.93922,-11.88654 12.6467,-21.27892 z"
       id="path2"
       style="fill:#000000;stroke-width:14;stroke-dasharray:none" />
  </g>
</svg>
