<?xml version="1.0" encoding="UTF-8" standalone="no"?>
<!-- Created with Inkscape (http://www.inkscape.org/) -->

<svg
   width="512mm"
   height="512mm"
   viewBox="0 0 512 512"
   version="1.1"
   id="svg1"
   inkscape:version="1.4.3 (0d15f75, 2025-12-25)"
   sodipodi:docname="toilet_man.svg"
   xmlns:inkscape="http://www.inkscape.org/namespaces/inkscape"
   xmlns:sodipodi="http://sodipodi.sourceforge.net/DTD/sodipodi-0.dtd"
   xmlns="http://www.w3.org/2000/svg"
   xmlns:svg="http://www.w3.org/2000/svg">
  <sodipodi:namedview
     id="namedview1"
     pagecolor="#ffffff"
     bordercolor="#000000"
     borderopacity="0.25"
     inkscape:showpageshadow="2"
     inkscape:pageopacity="0.0"
     inkscape:pagecheckerboard="0"
     inkscape:deskcolor="#d1d1d1"
     inkscape:document-units="mm"
     inkscape:lockguides="true"
     inkscape:zoom="0.25990635"
     inkscape:cx="1050.3783"
     inkscape:cy="1502.4643"
     inkscape:window-width="2112"
     inkscape:window-height="1211"
     inkscape:window-x="916"
     inkscape:window-y="132"
     inkscape:window-maximized="0"
     inkscape:current-layer="layer1"
     showguides="true"
     showgrid="true">
    <inkscape:grid
       id="grid1"
       units="mm"
       originx="0"
       originy="0"
       spacingx="0.99999998"
       spacingy="1"
       empcolor="#0099e5"
       empopacity="0.30196078"
       color="#0099e5"
       opacity="0.14901961"
       empspacing="5"
       enabled="true"
       visible="true" />
  </sodipodi:namedview>
  <defs
     id="defs1" />
  <g
     inkscape:label="Слой 1"
     inkscape:groupmode="layer"
     id="layer1">
    <path
       class="st0"
       d="m 262.98883,85.800961 c 23.65752,0 42.80318,-19.149508 42.80318,-42.776961 0,-23.617727 -19.14566,-42.75859842 -42.80318,-42.75859842 -23.6359,0 -42.80317,19.14087142 -42.80317,42.75859842 0.001,23.627453 19.16727,42.776961 42.80317,42.776961 z"
       id="path3"
       style="fill:#000000;stroke-width:14;stroke-dasharray:none" />
    <path
       class="st0"
       d="M 315.69128,97.876061 H 203.2235 c -20.73682,0 -43.31338,22.556029 -43.31338,43.278119 v 143.75307 c 0,10.36105 8.40973,18.76395 18.77921,18.76395 10.36841,0 18.77815,-8.4029 18.77815,-18.76395 V 166.71926 h 8.65402 v 320.85092 c 0,13.61316 11.04183,24.64705 24.67685,24.64705 13.63501,0 24.67684,-11.03389 24.67684,-24.64705 V 301.36524 h 7.96116 v 186.20494 c 0,13.61316 11.04182,24.64705 24.67684,24.64705 13.61448,0 24.67792,-11.03389 24.67792,-24.64705 V 166.71926 h 8.65403 v 118.18692 c 0,10.36106 8.40973,18.76391 18.77815,18.76391 10.36946,0 18.77921,-8.40285 18.77921,-18.76391 V 141.15309 c 0.002,-20.721 -22.57333,-43.277029 -43.31122,-43.277029 z"
       id="path4"
       style="fill:#000000;stroke-width:14;stroke-dasharray:none" />
  </g>
</svg>
